<?xml version="1.0" encoding="UTF-8" standalone="no"?>
<!-- Created with Inkscape (http://www.inkscape.org/) -->

<svg
   xmlns:dc="http://purl.org/dc/elements/1.1/"
   xmlns:cc="http://creativecommons.org/ns#"
   xmlns:rdf="http://www.w3.org/1999/02/22-rdf-syntax-ns#"
   xmlns:svg="http://www.w3.org/2000/svg"
   xmlns="http://www.w3.org/2000/svg"
   xmlns:sodipodi="http://sodipodi.sourceforge.net/DTD/sodipodi-0.dtd"
   xmlns:inkscape="http://www.inkscape.org/namespaces/inkscape"
   id="svg3187"
   version="1.1"
   inkscape:version="0.48.0 r9654"
   width="885.82672"
   height="885.82672"
   sodipodi:docname="punkbuntu.svg">
  <metadata
     id="metadata3193">
    <rdf:RDF>
      <cc:Work
         rdf:about="">
        <dc:format>image/svg+xml</dc:format>
        <dc:type
           rdf:resource="http://purl.org/dc/dcmitype/StillImage" />
        <dc:title></dc:title>
      </cc:Work>
    </rdf:RDF>
  </metadata>
  <defs
     id="defs3191" />
  <sodipodi:namedview
     pagecolor="#ffffff"
     bordercolor="#666666"
     borderopacity="1"
     objecttolerance="10"
     gridtolerance="10"
     guidetolerance="10"
     inkscape:pageopacity="0"
     inkscape:pageshadow="2"
     inkscape:window-width="1248"
     inkscape:window-height="772"
     id="namedview3189"
     showgrid="false"
     inkscape:zoom="0.23660189"
     inkscape:cx="-172.47599"
     inkscape:cy="521.54905"
     inkscape:window-x="7"
     inkscape:window-y="4"
     inkscape:window-maximized="0"
     inkscape:current-layer="g3989"
     units="mm" />
  <g
     id="g3989"
     transform="translate(0,492.82675)">
    <rect
       style="fill:none;stroke:#000000;stroke-width:18.65999985;stroke-miterlimit:4;stroke-opacity:1;stroke-dasharray:none"
       id="rect3115"
       width="883.16663"
       height="883.16663"
       x="2.2001402"
       y="-486.02701"
       inkscape:export-filename="/home/gordo/usr/share/gnome-about/macbuntu-64px.png"
       inkscape:export-xdpi="6.3899999"
       inkscape:export-ydpi="6.3899999" />
    <flowRoot
       xml:space="preserve"
       id="flowRoot4937"
       style="font-size:40px;font-style:normal;font-weight:normal;line-height:125%;letter-spacing:0px;word-spacing:0px;fill:#000000;fill-opacity:1;stroke:none;font-family:Bitstream Vera Sans"
       transform="matrix(1.095241,0,0,1.095241,321.69942,-951.24138)"><flowRegion
         id="flowRegion4939"><rect
           id="rect4941"
           width="964.49365"
           height="155.56349"
           x="-164.04877"
           y="1080.6465" /></flowRegion><flowPara
         id="flowPara4943"
         style="font-size:110px;font-style:normal;font-variant:normal;font-weight:normal;font-stretch:normal;font-family:Ubuntu;-inkscape-font-specification:Ubuntu">punkbuntu</flowPara></flowRoot>    <path
       style="fill:#000000"
       d="m 611.32828,232.84343 c -40.36813,-3.41952 -62.66719,-58.17209 -33.83488,-87.78011 26.23553,-33.91814 87.25937,-19.09116 94.62906,23.29389 8.83853,35.77413 -24.92753,70.70042 -60.79418,64.48622 z m -153.4345,-65.47948 c -50.44245,-1.32475 -92.8944,-31.94541 -134.79377,-56.47063 6.37655,-24.772144 29.72773,-50.136159 42.78427,-74.751189 39.03221,20.79981 82.87556,40.097469 128.30986,30.671314 15.97124,-0.754816 54.74988,-3.110657 27.8435,-20.527976 19.757,-13.379646 84.16726,-5.798066 56.67222,-47.443455 -16.75316,-25.571661 -9.97264,-72.245112 -45.96998,-80.231961 -37.22064,-7.929192 -73.82597,-19.132303 -111.23077,-25.804083 -18.56429,24.595401 -25.03488,63.322191 -55.8462,75.447946 -6.81625,-8.451397 7.27485,-38.263225 -9.96995,-14.823122 -15.78723,20.469886 -38.0377,43.9941004 -27.20628,67.802899 -20.34042,19.77395 -26.96239,77.449997 -60.46282,55.562365 -21.77624,17.636342 -44.7594,42.079352 -74.42616,45.179042 11.33023,-28.470608 28.98001,-54.267476 41.72228,-82.193166 -25.33394,-32.325738 -39.3529,-72.451158 -51.50717,-110.78112 47.56804,-18.730182 67.48198,-83.214734 36.85841,-124.603124 -29.5585,-23.612 12.55346,-57.48339 25.94913,-80.73506 19.59492,-20.33485 40.81011,-39.86353 63.86647,-55.96791 5.70899,22.43783 47.04464,52.50069 23.0411,72.4569 -19.10964,22.55159 -42.38517,47.56994 -49.4027,75.92282 23.48599,2.24786 66.12137,25.55903 80.53139,-4.54647 20.43066,-42.19537 46.25075,-81.83264 66.20326,-124.10878 -24.82534,0.28009 -58.17942,38.91272 -66.00855,-3.2879 -12.41068,-19.13638 -25.05339,-40.74407 8.05727,-40.62442 37.29085,-10.75139 76.95747,-17.77728 115.45617,-13.50145 8.64559,-11.52706 4.17961,-26.5815 20.20431,-16.91354 15.58135,-11.01444 46.94048,-26.23242 33.15025,1.85041 13.5167,-12.74957 49.01948,-41.05693 36.64134,-1.21282 -16.19834,32.07142 3.87076,66.00592 27.30627,88.37662 16.75124,21.8738 49.24132,9.52315 65.60254,26.43372 27.47103,29.23335 57.98039,59.01299 68.04041,99.27728 -16.57547,0.83689 -33.17921,0.16971 -49.76743,0.17703 -8.9605,-32.61001 -25.63489,-62.6617 -50.55194,-85.76148 -22.36481,-23.80343 -51.4777,-40.75634 -80.30546,-55.47724 -36.19051,-3.42618 -1.58618,50.72488 5.86399,68.52455 14.94187,33.86089 27.07745,69.95214 45.7971,101.58778 44.71156,15.24973 92.28871,9.68131 138.65855,11.31507 9.62259,35.441817 1.73187,73.7834 -21.08874,102.542534 -10.42373,27.1406425 -50.46071,51.005854 -34.92725,81.58999 12.29833,32.835703 30.13707,63.515956 40.73575,96.942056 -30.21588,12.02841 -40.46804,-45.73024 -72.24929,-39.43743 -42.7096,-29.082107 -107.19114,-6.73403 -122.84053,42.39542 0.26404,15.36457 -16.16265,17.02744 -27.85035,15.72083 -17.63096,-0.0398 -35.26689,-0.002 -52.8905,-0.57225 z M 657.77963,-38.430622 c 18.68553,-26.160644 -30.72995,-13.579421 0,0 z m -377.66217,-3.097337 c 15.13015,-27.613463 35.66199,-53.923496 45.80683,-84.018491 -16.96712,-6.37325 -63.58966,-32.58004 -68.96376,-2.71747 0.25034,28.1919 8.54454,66.39667 23.15693,86.735961 z m 392.41123,-26.321917 c -2.70609,-14.082599 -20.2177,6.787064 0,0 z m -151.9513,-86.056094 c -0.58509,-15.53673 5.56235,-12.06782 19.14285,-5.58264 -10.80687,-30.19612 -15.00482,-63.86717 -29.65265,-92.85872 -16.60784,19.93975 -29.11429,48.26085 -44.2148,71.27978 -30.2385,31.8183 30.63162,25.38349 50.96008,28.22782 l 3.76452,-1.06624 0,0 z m -383.41331,56.020509 c -39.50144,-6.742989 -57.07279,-60.585369 -28.60163,-88.857909 28.13641,-33.18231 89.94639,-15.30767 94.25658,28.62074 5.68341,36.76849 -29.61212,68.577359 -65.65495,60.237169 z M 651.74517,-313.50973 c -39.26004,-6.13732 -58.09869,-59.60026 -29.79472,-88.31647 26.10232,-31.80798 83.02358,-18.81075 93.13831,20.91496 12.15111,37.72815 -25.13079,76.47345 -63.34359,67.40151 z"
       id="path3293"
       inkscape:connector-curvature="0" />
  </g>
</svg>
