<?xml version="1.0" encoding="UTF-8" standalone="no"?>
<!-- Created with Inkscape (http://www.inkscape.org/) -->

<svg
   xmlns:dc="http://purl.org/dc/elements/1.1/"
   xmlns:cc="http://creativecommons.org/ns#"
   xmlns:rdf="http://www.w3.org/1999/02/22-rdf-syntax-ns#"
   xmlns:svg="http://www.w3.org/2000/svg"
   xmlns="http://www.w3.org/2000/svg"
   xmlns:sodipodi="http://sodipodi.sourceforge.net/DTD/sodipodi-0.dtd"
   xmlns:inkscape="http://www.inkscape.org/namespaces/inkscape"
   id="svg3187"
   version="1.1"
   inkscape:version="0.48.0 r9654"
   width="885.82672"
   height="885.82672"
   sodipodi:docname="vuvubuntu.svg">
  <metadata
     id="metadata3193">
    <rdf:RDF>
      <cc:Work
         rdf:about="">
        <dc:format>image/svg+xml</dc:format>
        <dc:type
           rdf:resource="http://purl.org/dc/dcmitype/StillImage" />
        <dc:title></dc:title>
      </cc:Work>
    </rdf:RDF>
  </metadata>
  <defs
     id="defs3191">
    <clipPath
       clipPathUnits="userSpaceOnUse"
       id="clipPath3230">
      <path
         inkscape:connector-curvature="0"
         d="m 0,1887.874 1870.866,0 L 1870.866,0 0,0 0,1887.874 z"
         id="path3232" />
    </clipPath>
  </defs>
  <sodipodi:namedview
     pagecolor="#ffffff"
     bordercolor="#666666"
     borderopacity="1"
     objecttolerance="10"
     gridtolerance="10"
     guidetolerance="10"
     inkscape:pageopacity="0"
     inkscape:pageshadow="2"
     inkscape:window-width="1248"
     inkscape:window-height="772"
     id="namedview3189"
     showgrid="false"
     inkscape:zoom="0.23660189"
     inkscape:cx="-263.3922"
     inkscape:cy="275.81757"
     inkscape:window-x="7"
     inkscape:window-y="4"
     inkscape:window-maximized="0"
     inkscape:current-layer="g3989"
     units="mm" />
  <g
     id="g3989"
     transform="translate(0,492.82675)">
    <rect
       style="fill:none;stroke:#000000;stroke-width:18.65999985;stroke-miterlimit:4;stroke-opacity:1;stroke-dasharray:none"
       id="rect3115"
       width="883.16663"
       height="883.16663"
       x="2.2001402"
       y="-486.02701"
       inkscape:export-filename="/home/gordo/PROJEKTA/120days_of_buntu/graphx_logos/vuvubuntu/vuvubuntu-64px.png"
       inkscape:export-xdpi="6.3899999"
       inkscape:export-ydpi="6.3899999" />
    <g
       transform="matrix(0.66054334,0,0,-0.66054334,-172.29475,722.5326)"
       id="g3226">
      <g
         id="g3228"
         clip-path="url(#clipPath3230)">
        <g
           id="g3234"
           transform="translate(851.0122,1028.3994)">
          <path
             inkscape:connector-curvature="0"
             d="m 0,0 c -33.95,-61.455 -86.379,-114.885 -106.008,-184.016 43.15,-30.855 104.485,-43.527 172.014,-50.005 266.069,17.955 412.18,155.873 422.036,430.037 l -212.016,0 C 278.829,40.979 152.019,-50.883 0,0 m -158.013,500.043 c -86.23,-61.115 -144.443,-150.249 -164.015,-278.023 -14.04,-187.696 61.337,-302.471 168.016,-376.034 46.807,51.201 82.344,113.672 120.01,174.014 -92.533,52.474 -92.736,242.366 -8.001,304.027 -30.533,62.811 -62.958,123.726 -100.009,180.016 l -10.001,0 c -2.363,-0.97 -4.533,-2.132 -6,-4 M 100.01,580.051 C 13.159,582.226 -53.442,564.153 -106.008,532.046 -78.223,466.491 -50.095,401.276 -10,348.03 c 32.601,1.044 68.381,24.219 112.009,14.002 -2.954,-45.681 1.919,-100.716 0,-152.014 89.31,79.377 180.005,174.69 266.023,264.023 -88.503,87.511 -172.522,179.508 -266.023,262.022 -1.331,-51.338 2.666,-108.006 -1.999,-156.012 m 494.043,160.013 0,-1024.089 -1024.09,0 c 2.666,340.024 -5.333,690.737 4,1024.089 l 1020.09,0"
             style="fill:#ffffff;fill-opacity:1;fill-rule:evenodd;stroke:none"
             id="path3236" />
        </g>
        <g
           id="g3238"
           transform="translate(953.0215,1764.4629)">
          <path
             inkscape:connector-curvature="0"
             d="M 0,0 C 93.501,-82.515 177.52,-174.512 266.022,-262.022 180.005,-351.356 89.31,-446.668 0,-526.046 c 1.919,51.299 -2.954,106.333 0,152.014 -43.628,10.218 -79.408,-12.957 -112.009,-14.001 -3.787,6.089 -94.566,180.61 -96.009,184.016 52.566,32.107 119.168,50.179 206.019,48.004 C 2.666,-108.006 -1.331,-51.339 0,0"
             style="fill:#000000;fill-opacity:1;fill-rule:evenodd;stroke:none"
             id="path3240" />
        </g>
        <g
           id="g3242"
           transform="translate(698.999,1532.4429)">
          <path
             inkscape:connector-curvature="0"
             d="m 0,0 10.001,0 c 0,0 93.226,-171.174 100.009,-180.016 -84.735,-61.661 -84.531,-251.554 8.001,-304.027 L -1.999,-658.057 c -106.679,73.562 -182.056,188.338 -168.016,376.033 C -150.443,-154.25 -92.23,-65.116 -6,-4 c 1.467,1.868 3.637,3.03 6,4"
             style="fill:#000000;fill-opacity:1;fill-rule:evenodd;stroke:none"
             id="path3244" />
        </g>
        <g
           id="g3246"
           transform="translate(1127.0381,1224.415)">
          <path
             inkscape:connector-curvature="0"
             d="M 0,0 212.016,0 C 202.16,-274.164 56.049,-412.082 -210.02,-430.037 c -67.529,6.478 -128.864,19.15 -172.014,50.006 -0.279,5.635 106.008,184.015 106.008,184.015 C -124.007,-246.898 2.803,-155.036 0,0"
             style="fill:#000000;fill-opacity:1;fill-rule:evenodd;stroke:none"
             id="path3248" />
        </g>
        <g
           id="g3250"
           transform="translate(844.0684,656.9834)">
          <path
             inkscape:connector-curvature="0"
             d="m 0,0 c 1.383,-34.565 -27.132,-54.396 -59.992,-43.195 -4.32,-6.416 -7.959,-12.616 -11.999,-19.198 -3.691,-6.013 -9.598,-12.17 -10.799,-20.396 C -22.878,-115.159 50.872,-66.878 45.595,0 L 0,0 z m -170.378,1.2 c -39.561,6.765 -66.51,-20.098 -65.992,-50.394 0.616,-36.079 43.979,-41.072 77.99,-28.796 1.234,7.564 3.437,14.16 4.799,21.597 -8.542,-2.946 -22.505,-10.575 -35.995,-9.599 -10.574,0.764 -21.344,5.171 -20.398,19.198 l 59.993,0 c 10.278,23.883 -1.975,44.843 -20.397,47.994 m 449.943,-6 c -13.318,-10.233 -13.199,-32.408 -13.199,-57.593 0,-14.909 -0.74,-24.174 7.199,-26.396 17.219,-4.818 15.599,17.256 15.599,33.596 0,19.696 -0.424,34.244 13.198,35.996 39.102,5.028 2.215,-71.549 31.197,-70.792 9.358,0.245 10.354,8.888 10.798,21.597 0.374,10.694 1.009,23.469 0,33.595 C 341.814,-9.263 326.6,3.482 301.163,1.2 296.436,0.774 287.194,1.062 279.565,-4.8 M 163.18,-22.798 c -0.333,-31.839 1.384,-57.096 22.798,-64.792 23.176,-8.329 47.052,4.639 52.793,19.198 2.14,5.431 1.621,11.388 2.399,19.198 1.579,15.854 6.684,51.612 -10.799,51.592 -21.137,-0.021 -4.676,-48.189 -13.198,-63.591 -1.763,-3.186 -6.542,-6.423 -10.798,-7.199 C 165.96,-75.758 203.44,7.338 172.778,1.2 161.573,-1.044 163.326,-8.83 163.18,-22.798 M 392.352,35.995 C 376.45,45.543 371.184,23.237 374.354,3.599 c -18.152,3.255 -15.764,-20.651 0,-17.997 3.381,-27.446 -7.722,-60.831 8.399,-71.992 7.473,-5.173 42.875,-5.638 40.794,9.599 -1.785,13.069 -17.014,2.062 -22.797,5.999 -10.673,7.269 0.608,45.023 -3.6,57.593 25.394,-4.993 22.218,20.921 0,17.998 -0.835,13.066 2.552,26.782 -4.798,31.196 M 82.79,33.596 C 78.563,38.603 69.793,38.041 65.991,34.795 59.361,29.132 62.393,2.103 62.393,-7.2 c 0,-24.386 -2.812,-50.633 4.798,-64.792 10.82,-20.128 45.09,-23.476 61.193,-9.599 0.407,0.351 -0.383,2.017 0,2.401 0.384,0.382 2.05,-0.406 2.4,0 15.693,18.229 12.849,58.11 -1.2,71.99 0.146,-0.144 -10.96,9.76 -25.196,9.598 C 96.225,2.308 97.076,0.178 85.188,-2.4 83.101,10.902 88.95,26.296 82.79,33.596 M -92.388,67.191 c -1.604,-0.304 -2.475,-1.647 -3.6,-2.399 -47.018,-31.47 -45.109,-115.645 2.4,-140.383 4.78,5.675 8.428,10.844 13.198,17.998 1.544,2.316 12.189,17.033 11.999,19.197 -0.237,2.7 -7.696,7.604 -10.799,13.199 -2.138,3.855 -4.242,9.049 -4.799,13.198 -2.996,22.317 5.694,28.066 14.398,40.796 -8.6,11.796 -13.916,26.878 -22.797,38.394 m 55.193,16.798 c -18.598,0.2 -32.414,-4.383 -45.595,-9.598 4.322,-15.676 13.186,-26.811 19.198,-40.795 8.418,0.584 17.147,6.572 26.397,2.399 l 0,-31.196 c 2.794,-0.02 5.255,2.928 7.199,4.8 17.084,16.452 34.226,34.608 49.194,51.592 -19.499,17.699 -36.895,37.497 -56.393,55.194 l 0,-32.396 z M 518.335,-6 c -4.469,7.435 -7.012,8.708 -11.998,8.398 -23.112,-1.429 1.247,-60.742 -19.197,-69.589 -8.064,-3.491 -14.532,-1.175 -17.998,1.199 -13.672,9.361 4.574,68.581 -17.997,68.39 -10.332,-0.085 -10.647,-9.448 -10.799,-23.996 -0.233,-22.103 -1.232,-46.167 9.598,-57.592 8.381,-8.842 30.42,-13.008 44.395,-8.4 12.916,4.26 21.141,15.749 23.996,32.397 l 0,-47.995 -839.895,0 0,21.597 25.198,0 c 5.575,16.821 9.24,35.554 13.198,53.994 9.992,3.044 20.67,3.912 32.395,2.4 4.276,6.123 4.515,16.284 7.2,23.997 -15.822,1.023 -25.713,-3.885 -33.597,-10.799 -3.674,2.603 1.151,6.754 0,10.799 l -25.196,0 c -6.671,-25.725 -11.946,-52.847 -19.198,-77.99 l 0,197.975 839.895,0 0,-124.785 z"
             style="fill:#ffffff;fill-opacity:1;fill-rule:evenodd;stroke:none"
             id="path3252" />
        </g>
        <g
           id="g3254"
           transform="translate(809.2729,736.1729)">
          <path
             inkscape:connector-curvature="0"
             d="m 0,0 c -18.027,0.83 -32.156,-2.239 -43.195,-8.398 6.053,-10.346 11.648,-21.15 16.798,-32.397 6.981,2.634 19.984,5.593 28.796,2.399 -0.914,-6.768 0.507,-14.5 0,-23.996 3.925,1.225 7.491,5.089 10.799,8.399 11.46,11.46 22.103,24.844 34.796,33.596 C 34.093,-2.702 17.1,11.901 1.2,27.598 0.41,18.787 2.786,6.813 0,0 M -2.4,37.195 C 17.098,19.499 34.495,-0.3 53.993,-17.998 39.026,-34.982 21.883,-53.139 4.799,-69.591 2.855,-71.463 0.394,-74.41 -2.4,-74.391 l 0,31.197 c -9.25,4.173 -17.979,-1.816 -26.396,-2.4 -6.013,13.985 -14.876,25.119 -19.198,40.795 C -34.813,0.417 -20.998,5 -2.4,4.8 l 0,32.395 z"
             style="fill:#000000;fill-opacity:1;fill-rule:evenodd;stroke:none"
             id="path3256" />
        </g>
        <g
           id="g3258"
           transform="translate(810.4731,763.7705)">
          <path
             inkscape:connector-curvature="0"
             d="M 0,0 C 15.9,-15.696 32.893,-30.3 46.793,-47.995 34.101,-56.747 23.458,-70.131 11.998,-81.591 8.689,-84.9 5.124,-88.765 1.199,-89.989 c 0.507,9.495 -0.914,17.227 0,23.996 -8.812,3.193 -21.815,0.234 -28.796,-2.4 -5.151,11.247 -10.745,22.051 -16.798,32.397 11.039,6.159 25.167,9.228 43.195,8.398 C 1.585,-20.784 -0.79,-8.811 0,0"
             style="fill:#ffffff;fill-opacity:1;fill-rule:evenodd;stroke:none"
             id="path3260" />
        </g>
        <g
           id="g3262"
           transform="translate(760.0791,674.9814)">
          <path
             inkscape:connector-curvature="0"
             d="M 0,0 C 2.279,4.321 8.29,8.282 8.399,11.998 8.5,15.413 2.662,21.551 0,26.396 -4.138,33.927 -6.205,41.435 -9.599,43.193 -11.161,42.785 -12.128,41.687 -13.198,40.794 -18.535,36.343 -26.34,28.653 -29.996,22.796 -51.384,-11.461 -43.001,-66.468 -9.599,-87.59 -3.39,-76.602 4.237,-67.029 10.799,-56.394 -6.832,-45.045 -9.032,-17.13 0,0 M 14.398,10.799 C 5.694,-1.931 -2.996,-7.68 0,-29.997 c 0.557,-4.149 2.662,-9.343 4.799,-13.198 3.103,-5.595 10.562,-10.499 10.799,-13.199 0.19,-2.164 -10.454,-16.881 -11.999,-19.197 -4.77,-7.154 -8.418,-12.323 -13.198,-17.998 -47.508,24.738 -49.418,108.913 -2.4,140.383 1.125,0.752 1.996,2.095 3.6,2.399 C 0.482,37.677 5.798,22.595 14.398,10.799"
             style="fill:#000000;fill-opacity:1;fill-rule:evenodd;stroke:none"
             id="path3264" />
        </g>
        <g
           id="g3266"
           transform="translate(770.8779,618.5879)">
          <path
             inkscape:connector-curvature="0"
             d="m 0,0 c -6.562,-10.636 -14.188,-20.208 -20.398,-31.196 -33.402,21.122 -41.785,76.129 -20.397,110.385 3.656,5.858 11.461,13.547 16.798,17.999 1.07,0.892 2.038,1.991 3.599,2.399 3.394,-1.759 5.461,-9.267 9.599,-16.797 2.662,-4.846 8.5,-10.983 8.4,-14.398 -0.11,-3.716 -6.121,-7.677 -8.4,-11.998 C -19.831,39.264 -17.631,11.349 0,0"
             style="fill:#ffffff;fill-opacity:1;fill-rule:evenodd;stroke:none"
             id="path3268" />
        </g>
        <g
           id="g3270"
           transform="translate(928.0576,628.1865)">
          <path
             inkscape:connector-curvature="0"
             d="m 0,0 c -4.247,-17.733 -0.044,-47.731 23.997,-41.995 6.974,1.664 12.211,12.229 13.199,21.598 C 39.324,-0.213 31.049,16.163 12,10.799 6.027,9.117 1.281,5.353 0,0 m 1.199,26.396 c 11.888,2.579 11.036,4.708 19.199,4.799 14.237,0.161 25.343,-9.742 25.197,-9.598 14.049,-13.88 16.892,-53.761 1.2,-71.991 -0.351,-0.405 -2.017,0.383 -2.4,0 -0.383,-0.383 0.407,-2.049 0,-2.4 -16.103,-13.877 -50.374,-10.529 -61.193,9.599 -7.61,14.159 -4.799,40.406 -4.799,64.792 0,9.302 -3.031,36.332 3.599,41.995 3.802,3.246 12.572,3.807 16.799,-1.199 6.16,-7.3 0.31,-22.694 2.398,-35.997"
             style="fill:#000000;fill-opacity:1;fill-rule:evenodd;stroke:none"
             id="path3272" />
        </g>
        <g
           id="g3274"
           transform="translate(1241.2188,661.7822)">
          <path
             inkscape:connector-curvature="0"
             d="m 0,0 c 22.218,2.923 25.394,-22.991 0,-17.998 4.208,-12.569 -7.073,-50.324 3.6,-57.593 5.783,-3.937 21.011,7.07 22.796,-5.999 2.082,-15.237 -33.321,-14.772 -40.793,-9.598 -16.122,11.161 -5.018,44.545 -8.4,71.991 -15.764,-2.654 -18.151,21.253 0,17.997 -3.17,19.638 2.097,41.944 17.998,32.396 C 2.552,26.782 -0.835,13.066 0,0"
             style="fill:#000000;fill-opacity:1;fill-rule:evenodd;stroke:none"
             id="path3276" />
        </g>
        <g
           id="g3278"
           transform="translate(1016.8467,658.1836)">
          <path
             inkscape:connector-curvature="0"
             d="m 0,0 c 30.662,6.138 -6.818,-76.958 33.597,-69.592 4.256,0.776 9.035,4.013 10.798,7.198 8.522,15.403 -7.939,63.571 13.198,63.592 17.483,0.02 12.378,-35.738 10.799,-51.593 -0.779,-7.809 -0.259,-13.766 -2.4,-19.197 C 60.252,-84.151 36.376,-97.119 13.199,-88.79 -8.214,-81.094 -9.932,-55.837 -9.599,-23.998 -9.452,-10.03 -11.205,-2.244 0,0"
             style="fill:#000000;fill-opacity:1;fill-rule:evenodd;stroke:none"
             id="path3280" />
        </g>
        <g
           id="g3282"
           transform="translate(1145.2314,658.1836)">
          <path
             inkscape:connector-curvature="0"
             d="m 0,0 c 25.437,2.282 40.651,-10.463 43.194,-35.997 1.009,-10.126 0.374,-22.901 0,-33.595 -0.444,-12.709 -1.44,-21.352 -10.798,-21.597 -28.982,-0.757 7.905,75.82 -31.197,70.792 -13.622,-1.752 -13.198,-16.3 -13.198,-35.997 0,-16.339 1.62,-38.414 -15.599,-33.595 -7.939,2.221 -7.199,11.487 -7.199,26.396 0,25.185 -0.119,47.36 13.199,57.593 7.629,5.861 16.87,5.574 21.598,6"
             style="fill:#000000;fill-opacity:1;fill-rule:evenodd;stroke:none"
             id="path3284" />
        </g>
        <g
           id="g3286"
           transform="translate(1362.4033,650.9834)">
          <path
             inkscape:connector-curvature="0"
             d="m 0,0 0,-49.193 c -2.854,-16.648 -11.08,-28.137 -23.996,-32.397 -13.975,-4.608 -36.014,-0.442 -44.395,8.4 -10.83,11.425 -9.831,35.489 -9.598,57.592 0.152,14.548 0.468,23.911 10.799,23.996 22.571,0.191 4.325,-59.029 17.997,-68.39 3.466,-2.374 9.934,-4.69 17.998,-1.199 20.444,8.847 -3.915,68.16 19.197,69.589 C -7.012,8.708 -4.469,7.435 0,0"
             style="fill:#000000;fill-opacity:1;fill-rule:evenodd;stroke:none"
             id="path3288" />
        </g>
        <g
           id="g3290"
           transform="translate(636.4946,625.7871)">
          <path
             inkscape:connector-curvature="0"
             d="M 0,0 35.996,0 C 38.091,25.764 0.86,17.267 0,0 m 57.592,-15.598 -59.992,0 c -0.946,-14.027 9.823,-18.433 20.398,-19.198 13.489,-0.975 27.453,6.653 35.995,9.6 -1.363,-7.438 -3.565,-14.033 -4.799,-21.598 -34.011,-12.275 -77.374,-7.283 -77.99,28.796 -0.518,30.296 26.43,57.159 65.991,50.394 18.423,-3.151 30.676,-24.111 20.397,-47.994"
             style="fill:#000000;fill-opacity:1;fill-rule:evenodd;stroke:none"
             id="path3292" />
        </g>
        <g
           id="g3294"
           transform="translate(889.6631,656.9834)">
          <path
             inkscape:connector-curvature="0"
             d="m 0,0 c 5.277,-66.878 -68.473,-115.159 -128.384,-82.789 1.2,8.226 7.107,14.383 10.799,20.396 4.04,6.582 7.678,12.782 11.998,19.198 32.86,-11.201 61.375,8.63 59.992,43.195 L 0,0 z"
             style="fill:#000000;fill-opacity:1;fill-rule:evenodd;stroke:none"
             id="path3296" />
        </g>
        <g
           id="g3298"
           transform="translate(522.5088,575.3926)">
          <path
             inkscape:connector-curvature="0"
             d="m 0,0 0,2.4 c 7.252,25.144 12.527,52.266 19.198,77.991 l 25.196,0 c 1.151,-4.045 -3.674,-8.197 0,-10.799 7.884,6.914 17.775,11.822 33.596,10.799 C 75.305,72.678 75.067,62.517 70.791,56.394 59.066,57.906 48.387,57.038 38.396,53.994 34.438,35.554 30.773,16.821 25.197,0 L 0,0 z"
             style="fill:#000000;fill-opacity:1;fill-rule:evenodd;stroke:none"
             id="path3300" />
        </g>
        <g
           id="g3302"
           transform="translate(672.4902,625.7871)">
          <path
             inkscape:connector-curvature="0"
             d="M 0,0 -35.996,0 C -35.135,17.267 2.096,25.764 0,0"
             style="fill:#ffffff;fill-opacity:1;fill-rule:evenodd;stroke:none"
             id="path3304" />
        </g>
        <g
           id="g3306"
           transform="translate(940.0576,638.9854)">
          <path
             inkscape:connector-curvature="0"
             d="M 0,0 C 19.049,5.364 27.324,-11.012 25.196,-31.196 24.208,-40.564 18.971,-51.13 11.997,-52.794 -12.044,-58.53 -16.247,-28.532 -12,-10.799 -10.719,-5.446 -5.973,-1.682 0,0"
             style="fill:#ffffff;fill-opacity:1;fill-rule:evenodd;stroke:none"
             id="path3308" />
        </g>
      </g>
    </g>
  </g>
</svg>
